<?xml version="1.0" encoding="utf-8"?>
<!-- Generator: Adobe Illustrator 25.1.0, SVG Export Plug-In . SVG Version: 6.00 Build 0)  -->
<svg version="1.0" id="Layer_1" xmlns="http://www.w3.org/2000/svg" xmlns:xlink="http://www.w3.org/1999/xlink" x="0px" y="0px"
	 viewBox="0 0 280 300" enable-background="new 0 0 280 300" xml:space="preserve">
<g>
</g>
<g>
	<path fill-rule="evenodd" clip-rule="evenodd" d="M41.08,127.48c-2.56,3.01-4.51,6.47-5.94,10.23c-1.49,3.92-2.28,7.95-2.28,12.24
		c0,4.84,1.04,9.34,2.83,13.61c1.77,4.23,4.2,7.86,7.4,11.05c3.11,3.11,6.76,5.57,10.96,7.4c4.2,1.83,8.77,2.83,13.52,2.83
		c4.84,0,9.33-0.97,13.61-2.83c4.13-1.79,7.81-4.25,10.96-7.4c3.15-3.15,5.55-6.86,7.31-11.05c1.8-4.3,2.83-8.77,2.83-13.61
		c0-4.29-0.79-8.32-2.28-12.24c-1.43-3.76-3.36-7.14-5.94-10.23c-2.53-3.03-5.49-5.55-8.86-7.49c-5.27-3.04-10.69-4.84-16.99-4.84
		c-0.3,0-0.61,0-0.91,0c-6.21,0-11.9,1.78-17.26,4.84C46.65,121.92,43.64,124.47,41.08,127.48L41.08,127.48z"/>
	<path fill-rule="evenodd" clip-rule="evenodd" d="M184.76,127.85c-3.38,0-6.49,0.55-9.41,1.74c-2.92,1.19-5.48,2.83-7.67,5.02
		c-2.19,2.19-3.93,4.66-5.02,7.49c-1.19,2.83-1.74,5.94-1.74,9.32c0,3.2,0.55,6.3,1.74,9.13c1.1,2.74,2.83,5.3,5.02,7.49
		c2.28,2.1,4.84,3.84,7.76,5.02c2.83,1.1,6.03,1.74,9.32,1.74c3.38,0,6.39-0.64,9.41-1.74c2.83-1.19,5.48-2.92,7.67-5.02
		c2.28-2.19,3.93-4.75,5.12-7.58c1.19-2.83,1.74-5.85,1.74-9.04c0-3.38-0.55-6.48-1.74-9.32c-1.1-2.83-2.74-5.3-5.02-7.49
		c-2.19-2.19-4.84-3.84-7.76-5.02C191.24,128.4,188.14,127.85,184.76,127.85L184.76,127.85z M184.76,142.83
		c2.28,0,4.11,0.73,5.48,2.37c1.37,1.55,2.1,3.56,2.1,6.21c0,2.47-0.73,4.57-2.1,6.03c-1.37,1.55-3.2,2.28-5.48,2.28
		c-2.28,0-4.02-0.73-5.39-2.28c-1.46-1.46-2.1-3.56-2.1-6.03c0-2.65,0.64-4.66,2.1-6.21C180.74,143.56,182.47,142.83,184.76,142.83
		L184.76,142.83z"/>
	<path fill-rule="evenodd" clip-rule="evenodd" d="M153.52,161.01c0.37-2.1,0.55-4.75,0.55-7.95v-24.21h-16.08v24.39
		c0,2.74-0.27,4.66-1.01,5.85c-0.73,1.1-1.83,1.64-3.47,1.64c-1.64,0-2.74-0.55-3.47-1.64c-0.64-1-1-3.01-1-5.85v-24.39h-15.98
		v24.21c-0.09,3.38,0.18,5.94,0.55,7.95c0.37,2.1,1.1,3.75,1.92,5.12c1.83,2.83,4.29,4.93,7.4,6.39c3.01,1.55,6.58,2.28,10.6,2.28
		c4.02,0,7.49-0.73,10.6-2.28c3.11-1.46,5.57-3.56,7.31-6.39C152.33,164.75,153.06,163.02,153.52,161.01L153.52,161.01z"/>
	<polygon fill-rule="evenodd" clip-rule="evenodd" points="231.52,128.85 215.45,128.85 215.45,173.61 247.14,173.61 247.14,159.09 
		231.52,159.09 231.52,128.85 	"/>
	<path fill-rule="evenodd" clip-rule="evenodd" fill="#FAA81E" d="M90.77,127.76c-4.29-5.21-9.86-8.59-16.72-9.86
		c-6.76-1.28-13.15-0.27-19.18,3.01c-3.11,1.74-5.75,3.93-7.86,6.49c-2.19,2.65-3.84,5.66-4.93,9.04c-1.1,3.47-1.37,7.12-1,10.69
		c0.91-2.28,2.28-4.38,3.93-6.39c2.37-2.83,5.3-4.93,8.59-6.48c3.29-1.46,6.85-2.28,10.6-2.37c3.75,0,7.4,0.73,10.78,2.19
		c3.56,1.46,6.67,3.65,9.32,6.58c1,1,1.83,2.19,2.65,3.38c1.19,0,2.37,0.09,3.38,0.37c2.65,0.73,4.75,2.1,6.39,4.11l0.09-1.28
		c0.27-3.56-0.09-6.94-1.1-10.23C94.69,133.7,93.05,130.59,90.77,127.76L90.77,127.76z"/>
	<path fill-rule="evenodd" clip-rule="evenodd" fill="#FAA81E" d="M40.35,160.64c0.46,2.74,1.28,5.39,2.65,7.76
		c1.28,2.37,3.01,4.57,5.21,6.48l1.1,0.91c3.75,2.56,7.76,4.38,12.15,5.3c2.83,0.55,5.66,0.37,8.4-0.27
		c2.92-0.64,5.66-1.83,8.22-3.56c-2.37-0.55-4.48-1.83-6.12-3.75l-0.64-0.73c-3.47,0.36-6.94,0.27-10.41-0.46
		c-4.38-1-8.22-2.83-11.78-5.39c-3.38-2.56-6.21-5.85-8.31-9.68l-0.55-1.1C40.16,157.63,40.16,159.18,40.35,160.64L40.35,160.64z"/>
	<path fill-rule="evenodd" clip-rule="evenodd" fill="#D74838" d="M72.86,137.62c-3.2-1.37-6.67-2.01-10.23-2.01
		c-3.47,0.09-6.76,0.82-9.77,2.28c-3.01,1.37-5.66,3.38-7.86,5.94c-1.55,1.92-2.83,4.02-3.65,6.21c0.64,2.74,1.64,5.3,3.11,7.86
		c2.1,3.56,4.84,6.58,8.22,8.95c3.29,2.37,7.03,3.93,11.05,4.84c2.47,0.46,5.02,0.64,7.58,0.55c-1-1.64-1.64-3.38-1.92-5.39
		c-0.37-2.01-0.27-4.02,0.09-6.21c0.46-2.65,1.46-5.12,2.83-7.4c1.46-2.28,3.38-4.38,5.66-6.03c1.46-1.1,3.01-1.92,4.57-2.56
		l-0.82-0.91C79.17,141.09,76.24,138.99,72.86,137.62L72.86,137.62z"/>
	<path fill-rule="evenodd" clip-rule="evenodd" fill="#F28A32" d="M97.25,153.24l-0.82-1.37c-1.19,4.11-3.38,7.76-6.21,11.05
		c-0.64,2.74-1.74,5.21-3.2,7.49c-1.46,2.28-3.38,4.29-5.57,6.03c1.55,0.09,3.11-0.18,4.66-0.73c1.46-0.55,2.83-1.37,4.2-2.47
		c1.83-1.74,3.56-3.75,5.02-5.85l0.27-0.37c0.64-1.37,1.28-2.74,1.74-4.02c0.46-1.37,0.73-2.74,0.82-4.02
		c0.09-1.37,0.09-2.56-0.18-3.75C97.8,154.52,97.53,153.88,97.25,153.24L97.25,153.24z"/>
	<path fill-rule="evenodd" clip-rule="evenodd" fill="#E26B36" d="M37.15,137.17c-1.19,3.29-1.83,6.76-2.01,10.5
		c-0.09,4.84,0.82,9.5,2.65,13.88c0.91,2.1,2.01,4.11,3.38,6.03c1.28,1.83,2.74,3.56,4.38,5.11c-3.56-3.93-5.66-8.49-6.3-13.61
		c-0.18-1.74-0.18-3.38-0.09-5.12c-1.19-3.29-1.83-6.58-1.83-9.96c0-3.2,0.55-6.3,1.55-9.5c0.82-2.19,1.92-4.29,3.11-6.21
		C39.89,131.05,38.34,133.97,37.15,137.17L37.15,137.17z"/>
	<path fill-rule="evenodd" clip-rule="evenodd" fill="#E26B36" d="M99.54,139.08c-0.82-2.65-1.92-5.21-3.29-7.58
		c-1.37-2.28-3.01-4.38-5.02-6.3c-1.83-1.92-3.93-3.56-6.3-4.93c2.01,1.37,3.84,3.01,5.48,4.84c2.56,2.92,4.48,6.03,5.66,9.5
		c1.19,3.56,1.74,7.22,1.46,11.05c-0.09,1.19-0.27,2.28-0.46,3.47c0.46,0.73,0.91,1.64,1.28,2.56c0.91,2.65,1.1,5.48,0.64,8.31
		c1.37-3.93,2.1-8.04,2.01-12.33C100.81,144.75,100.36,141.83,99.54,139.08L99.54,139.08z"/>
	<path fill-rule="evenodd" clip-rule="evenodd" fill="#E26B36" d="M88.76,147.76c0.91,1.92,1.46,4.02,1.74,6.12
		c0.27,2.1,0.37,4.11,0.18,6.12l-0.37,2.01c2.74-3.2,4.57-6.76,5.66-10.87c-0.64-0.64-1.28-1.28-2.01-1.83
		C92.5,148.31,90.77,147.76,88.76,147.76L88.76,147.76z"/>
	<path fill-rule="evenodd" clip-rule="evenodd" fill="#D74838" d="M83.28,171.88c1.1-1.55,2.01-3.29,2.65-5.02
		c-3.65,2.65-7.67,4.48-12.06,5.39c0.64,1,1.46,1.83,2.37,2.47c0.91,0.64,1.92,1.1,3.11,1.46
		C80.81,174.89,82.18,173.43,83.28,171.88L83.28,171.88z"/>
	<path fill-rule="evenodd" clip-rule="evenodd" fill="#D74838" d="M64.92,181.65l3.93,0.18c3.38-0.09,6.58-0.73,9.68-1.74
		c2.92-1,5.75-2.37,8.22-4.11c-1.55,0.73-3.2,1.28-4.93,1.37c-0.55,0.09-1.19,0.09-1.83,0.09
		C75.51,180.37,70.49,181.74,64.92,181.65L64.92,181.65z"/>
	<path fill-rule="evenodd" clip-rule="evenodd" fill="#FFE600" d="M86.66,155.16c-0.55-2.37-1.37-4.57-2.56-6.67
		c-2.1,0.64-3.93,1.74-5.66,3.2c-1.83,1.55-3.38,3.47-4.57,5.66c-1,2.19-1.64,4.29-1.83,6.49c-0.27,2.1,0,4.02,0.55,5.85
		c0.27,0.64,0.46,1.19,0.82,1.74c2.28-0.27,4.38-0.91,6.48-1.83c2.19-0.82,4.2-2.01,6.12-3.47l0.18-0.09
		c0.37-1.37,0.64-2.74,0.82-4.11C87.21,159.64,87.11,157.44,86.66,155.16L86.66,155.16z"/>
</g>
</svg>
